# xmcd
#
# Track frame offsets:
#	150
#	22927
#	45495
#	64973
#	90763
#	110777
#	132404
#	148254
#	168136
#	184254
#	199301
#	224018
#	241212
#	263779
#	285404
#	313777
#
# Disc length: 4419 seconds
#
# Revision: 0
# Processed by: cddbd v1.5.2PL0 Copyright (c) Steve Scherf et al.
# Submitted via: audiograbber 1.83.01
#
DISCID=ee114110
DTITLE=Stanton Wariors - Fabriclive 30
DYEAR=1900
DGENRE=
TTITLE0=Planet Sonic, Bump (Acapella)
TTITLE1=Club Therapy (Stanton Warriors remix)
TTITLE2=Mandarine Girl, Bonus Beats
TTITLE3=Make Em Shake It (Stanton Warriors remix)
TTITLE4=Bollywood Beatdown
TTITLE5=Who's Afraid Of Detroit? (Stanton Warriors remix)
TTITLE6=Flamed Up
TTITLE7=Pop Ya Virus
TTITLE8=Touch It Beats, Shake It Up (Acapella)
TTITLE9=Tricky
TTITLE10=The Machine, Still Here (Acapella)
TTITLE11=Night Mover
TTITLE12=Dip and Get Low (Deekline and Wizard remix)
TTITLE13=No More Conversations (Mylo Remix), Bonus Beats
TTITLE14=To The Left (Stanton Warriors remix)
TTITLE15=Shake That Ass Bitch
EXTD=neocrime
EXTT0=
EXTT1=
EXTT2=
EXTT3=
EXTT4=
EXTT5=
EXTT6=
EXTT7=
EXTT8=
EXTT9=
EXTT10=
EXTT11=
EXTT12=
EXTT13=
EXTT14=
EXTT15=
PLAYORDER=
